PathFileType	4	(X/Y/Z)	 s05c0101.trc
DataRate	CameraRate	NumFrames	NumMarkers	Units	OrigDataRate	OrigDataStartFrame	OrigNumFrames
200	200	4	50	mm	200	1251	2000
Frame#	Time	racr			lacr			c7			jug			rlel			rdr			llel			ldr			s2			lic			ric			lasi			rasi			rpsi			lpsi			rgt			lgt			rth1			rth2			rth3			rth4			rlfc			rmfc			rsh1			rsh2			rsh3			rsh4			rlmal			rmmal			rcal			rtoe			rmt5			lth1			lth2			lth4			lth3			llfc			lmfc			lsh1			lsh2			lsh3			lsh4			llmal			lmmal			lcal			ltoe			lmt5			SBIKE			LBIKE			RBIKE			
		X1	Y1	Z1	X2	Y2	Z2	X3	Y3	Z3	X4	Y4	Z4	X5	Y5	Z5	X6	Y6	Z6	X7	Y7	Z7	X8	Y8	Z8	X9	Y9	Z9	X10	Y10	Z10	X11	Y11	Z11	X12	Y12	Z12	X13	Y13	Z13	X14	Y14	Z14	X15	Y15	Z15	X16	Y16	Z16	X17	Y17	Z17	X18	Y18	Z18	X19	Y19	Z19	X20	Y20	Z20	X21	Y21	Z21	X22	Y22	Z22	X23	Y23	Z23	X24	Y24	Z24	X25	Y25	Z25	X26	Y26	Z26	X27	Y27	Z27	X28	Y28	Z28	X29	Y29	Z29	X30	Y30	Z30	X31	Y31	Z31	X32	Y32	Z32	X33	Y33	Z33	X34	Y34	Z34	X35	Y35	Z35	X36	Y36	Z36	X37	Y37	Z37	X38	Y38	Z38	X39	Y39	Z39	X40	Y40	Z40	X41	Y41	Z41	X42	Y42	Z42	X43	Y43	Z43	X44	Y44	Z44	X45	Y45	Z45	X46	Y46	Z46	X47	Y47	Z47	X48	Y48	Z48	X49	Y49	Z49	X50	Y50	Z50	
1251	6.2550	454.157000	1315.479499	-153.097737	446.138592	1334.972169	-392.634682	430.186489	1389.457415	-269.552318	368.883056	1239.637300	-263.700672	502.657209	1081.333453	-1.408505	692.591530	922.512175	-65.295573	467.724750	1089.119591	-546.964946	680.440961	941.087999	-455.979190	-129.377715	1168.575593	-257.453988	8.297915	1201.024032	-403.585238	16.277206	1194.228150	-118.618286	63.502916	1149.417552	-373.711475	59.890055	1140.075261	-149.453725	-99.094992	1219.639570	-213.512234	-99.374255	1224.679927	-299.870346	-10.522020	1062.209482	-94.587166	-42.823561	1088.961704	-430.552300	90.334616	1001.788609	-81.489462	174.981434	973.730564	-80.599852	232.005405	906.554535	-84.135044	194.005654	1003.085668	-93.212097	338.877616	807.693782	-109.312473	327.973781	804.850239	-218.941391	249.823899	744.996970	-84.511561	205.667793	669.808424	-98.504894	132.615081	624.258924	-103.537485	229.388766	650.789062	-122.802800	44.382029	530.978373	-111.088999	70.274800	536.290246	-193.188039	-25.478439	556.922123	-159.646564	154.256151	321.132585	-148.885889	68.840284	382.484256	-87.415030	61.018270	983.128655	-450.780939	139.213572	947.523454	-447.698632	163.431608	974.141454	-434.580746	189.919082	872.928771	-447.561371	287.021380	762.217385	-415.931362	274.827305	744.516423	-310.613535	258.144417	637.182197	-443.341424	271.211806	551.357480	-432.539014	239.425260	468.741772	-434.223655	300.446578	550.494237	-407.003075	230.305987	347.202796	-430.435375	251.138457	371.596962	-352.301146	170.938521	304.723246	-389.563939	465.541676	294.638688	-393.237211	358.912558	265.270188	-457.631584	-258.743216	898.862454	-281.773619	-43.643712	84.584965	-475.212960	-51.860605	80.044803	-77.647252	
1252	6.2600	454.072664	1316.668771	-151.579723	447.302784	1335.358045	-390.297095	431.066747	1390.267208	-267.841596	368.986996	1240.774592	-261.979995	503.143056	1081.894681	-1.117417	692.962087	922.598744	-65.189199	470.088402	1090.876736	-547.031533	681.218396	940.963521	-455.589819	-127.817798	1169.169076	-260.896901	11.325735	1200.794885	-405.947002	15.807255	1196.269422	-120.810067	65.965186	1148.891985	-375.404514	60.184605	1141.914172	-151.063241	-98.741491	1220.648055	-217.424471	-97.829770	1224.959360	-303.713370	-9.361856	1065.649387	-96.087199	-40.561969	1087.808829	-432.414667	92.300772	1007.284162	-82.022923	177.557590	981.085258	-81.040964	236.142605	915.146422	-83.785439	195.887210	1010.684473	-94.015311	344.574173	818.261659	-108.279141	334.425332	814.452502	-218.139773	255.723873	755.188330	-83.942766	212.165625	680.305002	-97.668743	138.223014	634.768432	-103.417924	235.787252	661.054887	-121.892001	49.998118	541.445481	-111.004086	76.266017	546.616141	-193.035426	-20.110157	568.050861	-160.386025	158.199634	330.643378	-148.747214	73.330360	392.634360	-87.380229	61.637501	980.136021	-452.413707	138.808374	942.352621	-448.997477	163.729407	968.316719	-435.859652	187.392224	866.404948	-448.818677	281.323726	753.181209	-416.717334	268.220795	735.609224	-311.696119	252.164279	627.737512	-444.683744	266.230723	542.163154	-433.653218	235.514708	459.114340	-435.256203	295.534363	541.642652	-408.274433	227.654751	338.899701	-431.437556	248.402206	363.292653	-353.286363	167.911496	297.038342	-390.747583	462.396031	283.392158	-392.982954	355.728021	255.338878	-457.823772	-258.541937	898.960021	-281.671245	-43.566039	84.602881	-475.227620	-51.817245	80.088700	-77.649952	
1253	6.2650	453.981007	1318.103118	-150.107004	448.471316	1335.975380	-387.744078	431.981251	1391.251145	-266.419742	369.087922	1242.113289	-260.378025	503.779667	1082.592507	-1.041451	693.360686	922.699885	-65.203222	472.599958	1092.579108	-547.022633	682.181951	940.797249	-455.154716	-126.537674	1169.681313	-264.566675	14.429630	1200.577539	-408.381807	15.111458	1198.094335	-123.067754	68.304461	1148.244639	-376.863521	60.410188	1144.011376	-152.486545	-98.302524	1221.723510	-221.347501	-96.099810	1225.280850	-307.431821	-8.194792	1069.383288	-97.529319	-38.366026	1086.865538	-434.156946	94.203153	1013.004160	-82.463779	179.925538	988.618374	-81.491467	239.934420	923.966262	-83.494183	197.624068	1018.483755	-94.859073	350.312298	828.780735	-107.426851	340.654871	824.242443	-217.422536	261.448229	765.510931	-83.410267	217.910579	690.680295	-97.120859	143.917503	645.277301	-103.148577	241.710585	671.382581	-121.012376	55.817357	551.731500	-110.907069	81.750972	556.651469	-192.703479	-13.018948	578.662868	-159.367315	162.917888	340.215384	-148.507295	78.229386	402.628443	-87.259284	62.109067	977.366021	-454.024592	138.159472	937.413106	-450.315949	163.744615	962.612697	-437.091450	184.555942	860.107426	-449.972466	275.308257	744.207415	-417.458536	261.474937	727.051567	-312.780053	245.923708	618.682456	-446.315376	260.716410	533.322489	-434.971576	230.988563	449.856898	-436.370441	290.652030	533.534415	-410.462454	224.483187	330.800002	-432.429126	245.348358	355.462480	-354.399992	164.324260	290.001836	-391.689926	458.713621	272.198118	-392.758110	351.832426	245.397787	-458.015857	-258.426883	899.016481	-281.681896	-43.523505	84.674690	-475.234163	-51.789399	80.110845	-77.642632	
1254	6.2700	453.939854	1319.583654	-148.848322	449.885964	1336.590313	-386.106241	432.873756	1392.389918	-265.166285	369.440121	1243.486798	-259.159103	504.694857	1083.466391	-1.125415	693.791828	922.808121	-65.283225	475.313625	1094.101152	-546.839219	683.157104	940.520693	-454.767368	-124.929483	1170.444936	-267.797838	17.601208	1200.408796	-410.603160	14.351360	1200.072814	-125.418830	70.802780	1147.919139	-378.323170	60.623543	1146.234102	-153.924490	-97.888575	1223.046605	-225.234920	-94.012681	1225.686177	-311.578564	-7.068961	1073.362947	-98.939835	-36.172318	1086.051881	-435.843017	95.930249	1018.911923	-83.020703	182.090715	996.330103	-81.993084	243.515962	933.067047	-82.941062	199.161274	1026.337715	-95.730692	355.767780	839.382711	-106.655089	346.697842	834.018768	-216.721828	267.043592	776.042687	-82.947906	223.657960	701.108334	-96.528551	149.634007	655.676835	-102.777197	247.532839	681.573120	-120.195273	61.632986	561.566486	-110.851690	87.857706	566.413730	-192.413330	-7.227906	588.485553	-159.556827	168.245192	349.714957	-148.386489	83.838147	412.314415	-87.680322	62.365376	974.748046	-455.549667	137.217640	932.640189	-451.532129	163.467490	957.080798	-438.277623	181.308534	853.892173	-451.035480	269.067731	735.625715	-418.219981	254.482266	718.998452	-314.003539	239.351491	610.171574	-447.734037	254.712953	525.129734	-436.231869	225.716882	441.297198	-437.487222	284.886044	525.534626	-412.065282	220.689416	323.073331	-433.314276	241.559811	347.771311	-355.303813	160.195893	283.146089	-392.762791	454.335348	261.458853	-392.484448	347.422075	236.041647	-458.219888	-258.297133	899.097994	-281.748001	-43.487304	84.699567	-475.209789	-51.748071	80.137163	-77.627624	
